<svg id="Capa_1" enable-background="new 0 0 512 512" height="512" viewBox="0 0 512 512" width="512" xmlns="http://www.w3.org/2000/svg"><g><g><g><g><g><g><g><g><g><path d="m512 256c0-141.385-114.615-256-256-256s-256 114.615-256 256c0 130.761 98.041 238.612 224.623 254.084l96.639-6.482c109.785-28.847 190.738-128.763 190.738-247.602z" fill="#994aff"/></g></g></g></g></g></g></g></g><path d="m512 256c0-1.459-.012-2.915-.037-4.368l-118.721-118.721-11.028 20.717-85.242-85.242-24.611 143.314-86.417-86.417v189.359l-55.852-55.852-40.726 53.967 193.424 193.423 38.472-2.578c109.764-28.862 190.738-128.778 190.738-247.602z" fill="#5e00d8"/><g><path d="m368.574 123.398c-17.626.498-32.203 14.666-33.166 32.273-.19 3.48.14 6.855.92 10.054 2.923 11.987 3.629 24.407 1.341 36.531l-2.093 11.086c-2.029 10.748-11.419 18.531-22.356 18.531h-1.05c-12.565 0-22.751-10.186-22.751-22.751v-68.052c0-11.856 3.042-23.61 9.381-33.629 3.665-5.793 5.639-12.763 5.225-20.215-.977-17.596-15.551-31.748-33.167-32.244-19.343-.544-35.194 14.974-35.194 34.194 0 6.586 1.861 12.738 5.087 17.957 6.297 10.189 9.574 21.955 9.574 33.932v67.574c0 11.837-8.854 22.056-20.642 23.136-10.73.983-20.536-5.623-23.771-15.7l-10.139-31.581c-3.402-10.596-4.027-21.813-2.473-32.833.347-2.462.433-5.007.227-7.608-1.324-16.718-14.934-30.179-31.664-31.337-19.993-1.383-36.642 14.426-36.642 34.124 0 11.057 5.246 20.889 13.385 27.142 11.377 8.741 19.491 21.053 23.876 34.714l21.381 79.822c0 13.508-15.416 21.224-26.229 13.127l-9.757-7.306c-4.678-3.503-7.623-8.84-8.126-14.663-.013-.15-.027-.3-.042-.45-1.64-16.563-15.332-29.689-31.947-30.676-21.07-1.252-38.326 16.579-36.105 37.831 1.704 16.3 15.052 29.203 31.396 30.425.074.005.147.011.221.016 6.61.452 12.974 2.674 18.277 6.645l37.855 31.778c42.701 38.871 64.498 112.767 64.498 149.995v4.767c10.514 1.315 21.226 1.993 32.096 1.993 22.556 0 44.425-2.92 65.262-8.398l.006-48.137c0-17.38 8.316-33.502 21.934-44.301 11.032-8.749 18.108-22.269 18.108-37.442 0 0-2.001-64.548 0-85.939 1.558-16.657 9.31-49.318 12.413-65.758 2.913-15.433 10.233-29.655 20.918-41.166 5.666-6.104 9.131-14.281 9.131-23.267 0-19.221-15.854-34.74-35.198-34.194z" fill="#00d65b"/></g><g><path d="m368.574 123.398c-17.626.498-32.203 14.666-33.166 32.273-.19 3.48.14 6.855.92 10.054 2.923 11.987 3.629 24.407 1.341 36.531l-2.093 11.086c-2.029 10.748-11.419 18.531-22.356 18.531h-1.05c-12.565 0-22.751-10.186-22.751-22.751v-68.052c0-11.856 3.042-23.61 9.381-33.629 3.665-5.793 5.639-12.763 5.225-20.215-.977-17.596-15.551-31.748-33.167-32.244-5.254-.148-10.246.897-14.738 2.872v454.145c22.514-.01 44.342-2.929 65.142-8.397l.006-48.137c0-17.38 8.316-33.501 21.934-44.301 11.032-8.749 18.107-22.269 18.107-37.442 0 0-2.001-64.548 0-85.939 1.558-16.657 9.31-49.318 12.413-65.758 2.913-15.433 10.233-29.655 20.918-41.166 5.666-6.104 9.131-14.281 9.131-23.267.001-19.222-15.853-34.74-35.197-34.194z" fill="#06bf51"/></g></g></svg>