<svg id="bold" enable-background="new 0 0 32 32" height="512" viewBox="0 0 32 32" width="512" xmlns="http://www.w3.org/2000/svg"><path d="m26 32h-20c-3.314 0-6-2.686-6-6v-20c0-3.314 2.686-6 6-6h20c3.314 0 6 2.686 6 6v20c0 3.314-2.686 6-6 6z" fill="#f5e6fe"/><g fill="#be63f9"><path d="m15.877 22.169c-.128 0-.256-.049-.354-.146l-5.546-5.546c-.094-.094-.146-.221-.146-.354s.053-.26.146-.354l1.156-1.156c.681-.682 1.869-.682 2.551 0l3.701 3.701c.703.703.703 1.848 0 2.552l-1.156 1.156c-.096.098-.224.147-.352.147z"/><path d="m22.113 15.661c-.295 0-.59-.112-.814-.337l-4.623-4.623c-.218-.217-.338-.507-.338-.815s.12-.597.338-.815l.925-.925c.195-.195.512-.195.707 0l5.546 5.546c.195.195.195.512 0 .707l-.925.925c-.225.225-.52.337-.816.337z"/><path d="m14.157 14.142 3.701 3.701c.12.12.226.25.316.387l2.544-2.544-4.404-4.404-2.549 2.549c.141.09.274.193.392.311z"/></g><path d="m11.926 19.367-3.779 3.78c-.195.195-.195.512 0 .707.097.097.225.146.353.146s.256-.049.354-.146l3.779-3.78z" fill="#d9a4fc"/></svg>