<?xml version="1.0" encoding="iso-8859-1"?>
<!-- Generator: Adobe Illustrator 19.0.0, SVG Export Plug-In . SVG Version: 6.00 Build 0)  -->
<svg version="1.1" id="Capa_1" xmlns="http://www.w3.org/2000/svg" xmlns:xlink="http://www.w3.org/1999/xlink" x="0px" y="0px"
	 viewBox="0 0 512 512" style="enable-background:new 0 0 512 512;" xml:space="preserve">
<path style="fill:#34ABE0;" d="M512,256c0,38.891-8.673,75.765-24.2,108.784c-6.395,13.615-13.97,26.582-22.57,38.755
	c-3.96,5.611-8.15,11.055-12.539,16.321c-1.4,1.672-2.811,3.333-4.253,4.974c-5.59,6.363-11.494,12.455-17.69,18.233
	c-3.062,2.873-6.196,5.663-9.404,8.38c-2.55,2.163-5.151,4.284-7.795,6.342c-6.071,4.744-12.361,9.226-18.85,13.416
	c-4.848,3.135-9.812,6.113-14.89,8.913c-3.093,1.714-6.228,3.375-9.404,4.953c-17.732,8.882-36.634,15.747-56.424,20.323
	c-3.082,0.721-6.186,1.379-9.31,1.985c-0.031,0.01-0.063,0.01-0.094,0.021c-4.399,0.846-8.84,1.578-13.312,2.194
	c-11.525,1.578-23.301,2.403-35.265,2.403c-2.884,0-5.757-0.052-8.62-0.146c-9.007-0.293-17.899-1.055-26.645-2.257
	c-4.483-0.616-8.923-1.348-13.322-2.205c-0.021,0-0.052,0-0.084-0.01c-3.124-0.606-6.238-1.264-9.32-1.985
	c-19.79-4.577-38.692-11.452-56.424-20.334c-3.176-1.578-6.311-3.229-9.404-4.942c-5.068-2.811-10.031-5.778-14.879-8.913
	c-4.274-2.759-8.464-5.642-12.549-8.641c-2.132-1.557-4.232-3.156-6.301-4.775c-5.392-4.221-10.616-8.652-15.642-13.281
	c-3.208-2.947-6.342-5.966-9.394-9.08c-3.385-3.438-6.677-6.969-9.853-10.595c-5.956-6.792-11.567-13.897-16.791-21.295
	c-12.633-17.878-23.04-37.459-30.793-58.315c-6.311-16.99-10.877-34.826-13.469-53.289c-0.93-6.625-1.609-13.333-2.017-20.104
	C0.17,266.595,0.003,261.318,0.003,256c0-3.615,0.073-7.22,0.23-10.804c0.366-9.017,1.212-17.909,2.497-26.655
	c1.317-9.049,3.124-17.941,5.36-26.655C36.553,81.534,136.759,0.002,256.002,0.002c91.083,0,171.049,47.563,216.418,119.212
	c15.329,24.2,26.707,51.147,33.238,79.934c2.393,10.564,4.138,21.378,5.183,32.402C511.613,239.595,512,247.756,512,256z"/>
<g>
	<path style="fill:#78CAEF;" d="M350.628,104.358L350.628,104.358c0-7.358-5.965-13.323-13.323-13.323h-4.441
		c-7.358,0-13.323-5.965-13.323-13.323l0,0c0-7.358-5.965-13.323-13.323-13.323H101.933c-7.358,0-13.323,5.965-13.323,13.323l0,0
		c0,7.358,5.965,13.323,13.323,13.323h82.159c7.358,0,13.323,5.965,13.323,13.323l0,0c0,7.358-5.965,13.323-13.323,13.323h-37.419
		c-7.358,0-13.323,5.965-13.323,13.323l0,0c0,7.358,5.965,13.323,13.323,13.323h11.304c7.358,0,13.323,5.965,13.323,13.323l0,0
		c0,7.358-5.965,13.323-13.323,13.323h-40.5c-7.358,0-13.323,5.965-13.323,13.323l0,0c0,7.358,5.965,13.323,13.323,13.323h191.873
		c7.358,0,13.323-5.965,13.323-13.323l0,0c0-7.358,5.965-13.323,13.323-13.323h1.309c7.358,0,13.323-5.965,13.323-13.323l0,0
		c0-7.358-5.965-13.323-13.323-13.323h-24.425c-7.358,0-13.323-5.965-13.323-13.323l0,0c0-7.358,5.965-13.323,13.323-13.323h24.425
		C344.664,117.68,350.628,111.716,350.628,104.358z"/>
	<path style="fill:#78CAEF;" d="M151.92,231.864c0,7.356-5.956,13.322-13.322,13.322h-3.699c-3.678,0-7.011,1.494-9.425,3.908
		c-2.403,2.403-3.897,5.736-3.897,9.414c0,7.356-5.966,13.322-13.322,13.322H0.494c-0.324-5.235-0.491-10.512-0.491-15.83
		c0-3.615,0.073-7.22,0.23-10.804c0.136-0.01,0.282-0.01,0.418-0.01H4.35c3.678,0,7.011-1.494,9.425-3.908
		c2.403-2.403,3.897-5.736,3.897-9.414c0-7.366-5.966-13.322-13.322-13.322H2.73c1.317-9.049,3.124-17.941,5.36-26.655h72.212
		c7.366,0,13.333,5.966,13.333,13.322c0,7.367,5.956,13.333,13.322,13.333h31.639c3.678,0,7.011,1.484,9.425,3.897
		C150.426,224.852,151.92,228.174,151.92,231.864z"/>
	<path style="fill:#78CAEF;" d="M505.658,199.148h-31.409c-3.678,0-7.011-1.494-9.414-3.908c-2.414-2.403-3.908-5.736-3.908-9.414
		c0-7.356-5.966-13.322-13.322-13.322h-63.655c-3.688,0-7.011-1.494-9.425-3.908c-2.414-2.403-3.908-5.736-3.908-9.414
		c0-7.356,5.966-13.322,13.333-13.322h42.924c3.688,0,7.011-1.494,9.425-3.908c2.414-2.403,3.897-5.736,3.897-9.414
		c0-7.356,5.966-13.322,13.333-13.322h18.892C487.748,143.413,499.127,170.361,505.658,199.148z"/>
	<path style="fill:#78CAEF;" d="M469.665,301.873v-0.001c0-7.358-5.964-13.322-13.322-13.322h-126.57
		c-7.358,0-13.322,5.964-13.322,13.322v0.001c0,7.358,5.964,13.322,13.322,13.322h21.094c7.358,0,13.322,5.964,13.322,13.322v0.001
		c0,7.358,5.964,13.322,13.322,13.322h105.474c7.358,0,13.322-5.964,13.322-13.322v-0.001c0-7.358-5.964-13.322-13.322-13.322l0,0
		C475.629,315.195,469.665,309.23,469.665,301.873z"/>
</g>
<path style="fill:#C4B59F;" d="M413.55,250.265V457.79c-6.071,4.744-12.361,9.226-18.85,13.416
	c-4.848,3.135-9.812,6.113-14.89,8.913c-3.093,1.714-6.228,3.375-9.404,4.953c-17.732,8.882-36.634,15.747-56.424,20.323
	c-3.082,0.721-6.186,1.379-9.31,1.985c-0.031,0.01-0.063,0.01-0.094,0.021c-4.399,0.846-8.84,1.578-13.312,2.194
	c-11.525,1.578-23.301,2.403-35.265,2.403c-2.884,0-5.757-0.052-8.62-0.146c-9.007-0.293-17.899-1.055-26.645-2.257
	c-4.483-0.616-8.923-1.348-13.322-2.205c-0.021,0-0.052,0-0.084-0.01c-3.124-0.606-6.238-1.264-9.32-1.985
	c-19.79-4.577-38.692-11.452-56.424-20.334c-3.176-1.578-6.311-3.229-9.404-4.942c-5.068-2.811-10.031-5.778-14.879-8.913
	c-4.274-2.759-8.464-5.642-12.549-8.641c-2.132-1.557-4.232-3.156-6.301-4.775V250.265L413.55,250.265L413.55,250.265z"/>
<rect x="76.382" y="209.595" style="fill:#B7A792;" width="369.871" height="67.396"/>
<polygon style="fill:#E8DBC4;" points="255.998,73.145 0,226.839 511.997,226.839 "/>
<rect x="34.229" y="226.836" style="fill:#D6C8B0;" width="95.608" height="36.049"/>
<rect x="62.441" y="244.077" style="fill:#E8DBC4;" width="67.396" height="18.808"/>
<path style="fill:#D6C8B0;" d="M117.303,262.887v208.32c-4.274-2.759-8.464-5.642-12.549-8.641
	c-2.132-1.557-4.232-3.156-6.301-4.775c-5.392-4.221-10.616-8.652-15.642-13.281c-3.208-2.947-6.342-5.966-9.394-9.08
	c-3.385-3.438-6.677-6.969-9.853-10.595c-5.956-6.792-11.567-13.897-16.791-21.295V262.887L117.303,262.887L117.303,262.887z"/>
<path style="fill:#E8DBC4;" d="M117.303,289.532v181.675c-4.274-2.759-8.464-5.642-12.549-8.641
	c-2.132-1.557-4.232-3.156-6.301-4.775c-5.392-4.221-10.616-8.652-15.642-13.281c-3.208-2.947-6.342-5.966-9.394-9.08V289.532
	H117.303z"/>
<path style="fill:#F9EED7;" d="M104.754,327.148v135.418c-2.132-1.557-4.232-3.156-6.301-4.775
	c-5.392-4.221-10.616-8.652-15.642-13.281V327.148c0-6.06,4.911-10.971,10.971-10.971c1.672,0,3.25,0.376,4.671,1.045
	c1.149,0.543,2.205,1.285,3.093,2.173C103.531,321.38,104.754,324.116,104.754,327.148z"/>
<rect x="208.195" y="226.836" style="fill:#D6C8B0;" width="95.608" height="36.049"/>
<rect x="236.407" y="244.077" style="fill:#E8DBC4;" width="67.396" height="18.808"/>
<path style="fill:#D6C8B0;" d="M291.267,262.887v246.709c-11.525,1.578-23.301,2.403-35.265,2.403c-2.884,0-5.757-0.052-8.62-0.146
	c-9.007-0.293-17.899-1.055-26.645-2.257V262.887L291.267,262.887L291.267,262.887z"/>
<path style="fill:#E8DBC4;" d="M291.267,289.532v220.065c-11.525,1.578-23.301,2.403-35.265,2.403c-2.884,0-5.757-0.052-8.62-0.146
	V289.532L291.267,289.532L291.267,289.532z"/>
<path style="fill:#F9EED7;" d="M267.751,490.138L267.751,490.138c-6.059,0-10.97-4.912-10.97-10.97V327.143
	c0-6.059,4.912-10.97,10.97-10.97l0,0c6.059,0,10.97,4.912,10.97,10.97v152.024C278.723,485.227,273.811,490.138,267.751,490.138z"
	/>
<rect x="382.159" y="226.836" style="fill:#D6C8B0;" width="95.608" height="36.049"/>
<rect x="410.371" y="244.077" style="fill:#E8DBC4;" width="67.396" height="18.808"/>
<path style="fill:#D6C8B0;" d="M465.231,262.887V403.54c-3.96,5.611-8.15,11.055-12.539,16.321c-1.4,1.672-2.811,3.333-4.253,4.974
	c-5.59,6.363-11.494,12.455-17.69,18.233c-3.062,2.873-6.196,5.663-9.404,8.38c-2.55,2.163-5.151,4.284-7.795,6.342
	c-6.071,4.744-12.361,9.226-18.85,13.416v-208.32L465.231,262.887L465.231,262.887z"/>
<path style="fill:#E8DBC4;" d="M465.231,289.532V403.54c-3.96,5.611-8.15,11.055-12.539,16.321c-1.4,1.672-2.811,3.333-4.253,4.974
	c-5.59,6.363-11.494,12.455-17.69,18.233c-3.062,2.873-6.196,5.663-9.404,8.38V289.532L465.231,289.532L465.231,289.532z"/>
<path style="fill:#F9EED7;" d="M452.692,327.148v92.713c-1.4,1.672-2.811,3.333-4.253,4.974c-5.59,6.363-11.494,12.455-17.69,18.233
	v-115.92c0-6.06,4.911-10.971,10.971-10.971c3.03,0,5.768,1.233,7.753,3.218C451.459,321.38,452.692,324.116,452.692,327.148z"/>
<g>
	<path style="fill:#E8DBC4;" d="M207.414,398.19v109.202c-0.021,0-0.052,0-0.084-0.01c-3.124-0.606-6.238-1.264-9.32-1.985
		c-19.79-4.577-38.692-11.452-56.424-20.334c-3.176-1.578-6.311-3.229-9.404-4.942v-81.93H207.414z"/>
	<path style="fill:#E8DBC4;" d="M379.811,398.19v81.93c-3.093,1.714-6.228,3.375-9.404,4.953
		c-17.732,8.882-36.634,15.747-56.424,20.323c-3.082,0.721-6.186,1.379-9.31,1.985c-0.031,0.01-0.063,0.01-0.094,0.021V398.19
		H379.811z"/>
</g>
<g>
	<path style="fill:#5C5E70;" d="M198.01,407.594v97.802c-19.79-4.577-38.692-11.452-56.424-20.334v-77.468L198.01,407.594
		L198.01,407.594z"/>
	<path style="fill:#5C5E70;" d="M370.407,407.594v77.479c-17.732,8.882-36.634,15.747-56.424,20.323v-97.802H370.407z"/>
</g>
<g>
	<rect x="136.505" y="249.75" style="fill:#E8DBC4;" width="63.397" height="109.63"/>
	<rect x="312.088" y="249.75" style="fill:#E8DBC4;" width="63.397" height="109.63"/>
</g>
<g>
	<rect x="144.435" y="257.681" style="fill:#5C5E70;" width="47.547" height="93.779"/>
	<rect x="320.019" y="257.681" style="fill:#5C5E70;" width="47.547" height="93.779"/>
</g>
<circle style="fill:#D6C8B0;" cx="255.998" cy="141.427" r="31.671"/>
<circle style="fill:#5C5E70;" cx="255.998" cy="141.427" r="20.216"/>
<rect x="246.072" y="0.001" style="fill:#E8DBC4;" width="19.853" height="83.873"/>
<g>
	<polygon style="fill:#FF525D;" points="344.817,55.664 265.928,55.664 265.928,0.002 344.817,0.002 318.695,27.452 	"/>
	<path style="fill:#FF525D;" d="M179.462,191.129c0-0.835,0.955-1.193,1.938-1.193c0.955,0,1.939,0.358,1.939,1.193v13.961
		c0,4.982-3.162,6.831-7.16,6.831c-4.027,0-7.16-1.849-7.16-6.831v-13.961c0-0.835,0.955-1.193,1.938-1.193
		c0.955,0,1.939,0.358,1.939,1.193v13.961c0,2.327,1.223,3.43,3.281,3.43s3.282-1.103,3.282-3.43v-13.961H179.462z"/>
	<path style="fill:#FF525D;" d="M200.102,210.519l-6.414-11.992v11.992c0,0.806-0.984,1.223-1.938,1.223
		c-0.984,0-1.939-0.418-1.939-1.223v-19.361c0-0.835,0.955-1.223,1.939-1.223c1.402,0,1.969,0.298,2.893,2.058l5.757,11.127v-11.992
		c0-0.835,0.955-1.193,1.938-1.193c0.955,0,1.938,0.358,1.938,1.193v19.39c0,0.806-0.984,1.223-1.938,1.223
		C201.414,211.741,200.609,211.444,200.102,210.519z"/>
	<path style="fill:#FF525D;" d="M210.838,191.129c0-0.835,0.955-1.193,1.939-1.193c0.955,0,1.938,0.358,1.938,1.193v19.39
		c0,0.806-0.984,1.223-1.938,1.223c-0.984,0-1.939-0.418-1.939-1.223V191.129z"/>
	<path style="fill:#FF525D;" d="M219.817,191.845c-0.029-0.119-0.06-0.239-0.06-0.299c0-0.955,1.402-1.611,2.446-1.611
		c0.656,0,1.163,0.209,1.312,0.775l4.564,16.169l4.534-16.169c0.149-0.566,0.656-0.775,1.312-0.775c1.044,0,2.446,0.685,2.446,1.611
		c0,0.09-0.029,0.179-0.06,0.299l-5.727,18.763c-0.269,0.894-1.372,1.312-2.506,1.312s-2.208-0.418-2.506-1.312L219.817,191.845z"/>
	<path style="fill:#FF525D;" d="M245.29,199.302h4.534c0.776,0,1.224,0.746,1.224,1.552c0,0.685-0.388,1.491-1.224,1.491h-4.534
		v5.996h8.443c0.775,0,1.224,0.806,1.224,1.73c0,0.806-0.388,1.671-1.224,1.671h-10.62c-0.865,0-1.7-0.418-1.7-1.223v-19.361
		c0-0.806,0.835-1.223,1.7-1.223h10.62c0.836,0,1.224,0.865,1.224,1.671c0,0.925-0.448,1.73-1.224,1.73h-8.443V199.302z"/>
	<path style="fill:#FF525D;" d="M260.204,191.129c0-0.627,0.507-1.193,1.253-1.193h5.906c3.908,0,7.071,1.491,7.071,6.235
		c0,3.43-1.672,5.28-3.908,5.966l3.908,7.249c0.119,0.149,0.149,0.358,0.149,0.478c0,0.984-1.283,2.028-2.417,2.028
		c-0.537,0-1.044-0.328-1.343-0.925l-4.236-8.234h-2.506v7.785c0,0.806-0.954,1.223-1.938,1.223c-0.954,0-1.938-0.418-1.938-1.223
		v-19.39H260.204z M264.082,193.337v6.354h3.282c1.938,0,3.192-0.806,3.192-3.162s-1.253-3.192-3.192-3.192H264.082z"/>
	<path style="fill:#FF525D;" d="M289.226,205.925c0-4.474-9.575-3.102-9.575-10.172c0-4.445,3.818-5.966,7.249-5.966
		c1.761,0,5.669,0.418,5.669,2.387c0,0.686-0.478,2.058-1.552,2.058c-0.925,0-1.61-1.134-4.116-1.134
		c-2.148,0-3.371,0.865-3.371,2.297c0,3.699,9.575,2.417,9.575,10.143c0,4.266-2.983,6.473-7.1,6.473
		c-3.908,0-6.891-1.969-6.891-3.699c0-0.835,0.775-2.088,1.7-2.088c1.224,0,2.028,2.297,5.072,2.297
		C287.675,208.52,289.226,207.714,289.226,205.925z"/>
	<path style="fill:#FF525D;" d="M298.74,191.129c0-0.835,0.954-1.193,1.938-1.193c0.955,0,1.938,0.358,1.938,1.193v19.39
		c0,0.806-0.983,1.223-1.938,1.223c-0.984,0-1.938-0.418-1.938-1.223V191.129z"/>
	<path style="fill:#FF525D;" d="M321.589,189.936c0.835,0,1.223,0.894,1.223,1.73c0,0.925-0.447,1.76-1.223,1.76h-4.355v17.093
		c0,0.806-0.984,1.223-1.939,1.223c-0.983,0-1.938-0.418-1.938-1.223v-17.093h-4.384c-0.775,0-1.224-0.806-1.224-1.76
		c0-0.835,0.388-1.73,1.224-1.73H321.589z"/>
	<path style="fill:#FF525D;" d="M332.744,203.001c0-0.149-0.029-0.298-0.09-0.388l-6.174-10.679c-0.061-0.149-0.09-0.299-0.09-0.388
		c0-0.955,1.521-1.611,2.565-1.611c0.627,0,0.926,0.238,1.194,0.775l4.534,8.621l4.564-8.621c0.269-0.507,0.537-0.775,1.163-0.775
		c1.044,0,2.565,0.656,2.565,1.611c0,0.09,0,0.239-0.089,0.388l-6.146,10.679c-0.06,0.09-0.119,0.239-0.119,0.388v7.518
		c0,0.806-0.954,1.223-1.938,1.223c-0.954,0-1.938-0.418-1.938-1.223v-7.518H332.744z"/>
</g>
<path style="fill:#F9EED7;" d="M338.79,149.517L338.79,149.517c2.896-5.017,9.311-6.735,14.329-3.839l79.557,45.932
	c5.017,2.896,6.735,9.311,3.839,14.329l0,0c-2.896,5.017-9.311,6.735-14.329,3.839l-79.557-45.932
	C337.613,160.948,335.894,154.534,338.79,149.517z"/>
<g>
</g>
<g>
</g>
<g>
</g>
<g>
</g>
<g>
</g>
<g>
</g>
<g>
</g>
<g>
</g>
<g>
</g>
<g>
</g>
<g>
</g>
<g>
</g>
<g>
</g>
<g>
</g>
<g>
</g>
</svg>
