<svg xmlns="http://www.w3.org/2000/svg" width="14" height="14" viewBox="0 0 14 14">
	<g id="flag_en" data-size="14 9.334">
		<path fill="#F0F0F0" d="M0 0h14v9.334H0V0z"/><path fill="#D80E2A" d="M7.875 0h-1.75v3.792H0v1.75h6.125v3.792h1.75V5.542H14v-1.75H7.875V0z"/><path fill="#2055A3" d="M10.768 6.29L14 8.086V6.29h-3.232zm-2.247 0L14 9.334v-.861L10.071 6.29h-1.55zm4.02 3.044L8.521 7.1v2.234h4.02z"/><path fill="#F0F0F0" d="M8.521 6.29L14 9.334v-.861L10.071 6.29h-1.55z"/><path fill="#D80E2A" d="M8.521 6.29L14 9.334v-.861L10.071 6.29h-1.55z"/><path fill="#2055A3" d="M2.47 6.29L0 7.663V6.29h2.47zm3.008.387v2.657H.697l4.781-2.657z"/><path fill="#D80E2A" d="M3.929 6.29L0 8.473v.861L5.478 6.29H3.929z"/><path fill="#2055A3" d="M3.232 3.043L0 1.248v1.796h3.232zm2.246 0L0 0v.86l3.929 2.183h1.549zM1.459 0l4.019 2.233V0H1.459z"/><path fill="#F0F0F0" d="M5.478 3.043L0 0v.86l3.929 2.183h1.549z"/><path fill="#D80E2A" d="M5.478 3.043L0 0v.86l3.929 2.183h1.549z"/><path fill="#2055A3" d="M11.529 3.043L14 1.671v1.373h-2.471zm-3.008-.387V0h4.781L8.521 2.656z"/><path fill="#D80E2A" d="M10.071 3.043L14 .86V0L8.521 3.043h1.55z"/>
	</g>
	<g id="flag_es" data-size="14 9.334">
		<path fill="#FFDA47" d="M0 0h14v9.332H0z"/><path fill="#D80E2A" d="M0 0h14v3.111H0zM0 6.221h14v3.111H0z"/>
	</g>
	<g id="flag_ja" data-size="14 9.334">
		<path fill="#FFF" d="M0 0h14v9.332H0z"/><circle fill="#D80E2A" cx="7" cy="4.667" r="2.625"/>
	</g>
	<g id="flag_zh" data-size="14 9.334">
		<path fill="#D60A2E" d="M0 0h14v9.334H0V0z"/>
		<path fill="#FED953" d="M2.333 1.78l.491.994 1.097.159-.794.775.187 1.092-.981-.515-.981.515.188-1.093-.795-.773 1.097-.159.491-.995zM5.239 3.689l.196.396.439.065-.317.308.075.437-.393-.206-.392.206.075-.437-.317-.308.438-.064.196-.397zM5.007 1.951l.358.261.417-.147-.136.421.27.352h-.444l-.251.365-.137-.422-.424-.127.358-.26-.011-.443zM4.433.752l-.084.436.311.315-.44.055-.204.393-.188-.401-.437-.072.323-.303-.066-.438.388.214.397-.199zM4.433 5.21l-.084.436.311.314-.44.055-.204.394-.188-.402-.437-.072.323-.303-.066-.438.388.215.397-.199z"/>
	</g>
	<g id="flag_ko" data-size="14 9.334">
		<path fill="#FFF" d="M0 0h14v9.332H0z"/><path fill="#D80E2A" d="M8.704 4.667c0 .426-.763 1.491-1.704 1.491S5.296 5.092 5.296 4.667a1.705 1.705 0 1 1 3.408 0z"/><path fill="#2055A3" d="M8.704 4.667a1.704 1.704 0 0 1-3.408 0"/><path fill="#010202" d="M9.56 6.022l-.452.451-.3-.3.452-.452zM8.808 6.776l-.452.453-.302-.302.451-.452zM10.465 6.926l-.453.452-.3-.302.452-.452zM9.712 7.678l-.451.453-.302-.3.45-.454zM10.013 6.474l-.452.452-.301-.301.452-.452zM9.26 7.227l-.453.451-.3-.3.452-.452zM8.809 1.653l1.204 1.205-.3.301-1.206-1.205zM8.356 2.106l.452.451-.3.302-.453-.452zM9.11 2.858l.452.452-.302.301-.452-.451zM9.26 1.201l.451.452-.3.301-.453-.452zM10.013 1.954l.453.452-.301.301-.453-.452zM4.74 8.13L3.534 6.926l.301-.3L5.041 7.83zM5.192 7.68l-.451-.452.301-.301.451.45zM4.439 6.926l-.452-.452.302-.3.451.451zM5.644 7.227L4.439 6.023l.301-.302 1.205 1.205zM3.535 2.406L4.74 1.201l.302.3-1.206 1.206zM3.987 2.858L5.19 1.653l.302.301L4.288 3.16zM4.44 3.31l1.204-1.204.301.301L4.74 3.612z"/>
	</g>
	<g id="flag_pt" data-size="14 9.334">
		<path fill="#D80E2A" d="M0 0h14v9.332H0z"/><path fill="#6EA644" d="M5.377 0v9.332H0V0z"/><circle fill="#FFDA47" cx="5.377" cy="4.667" r="1.75"/><path fill="#D80E2A" d="M4.393 3.792v1.094a.984.984 0 1 0 1.968 0V3.792H4.393z"/><path fill="#F0F0F0" d="M5.377 5.213a.328.328 0 0 1-.328-.328v-.437h.656v.438c0 .18-.147.327-.328.327z"/>
	</g>
	<g id="flag_fr" data-size="14 9.334">
		<path fill="#F0F0F0" d="M0 0h14v9.332H0z"/><path fill="#2055A3" d="M0 0h4.667v9.332H0z"/><path fill="#D80E2A" d="M9.334 0H14v9.332H9.334z"/>
	</g>
	<g id="flag_ru" data-size="14 9.334">
		<path fill="#FFF" d="M0 0h14v3.111H0z"/><path fill="#D52B1E" d="M0 6.223h14v3.111H0z"/><path fill="#0039A6" d="M0 3.111h14v3.111H0z"/>
	</g>
</svg>