<svg id="Layer_1" enable-background="new 0 0 508.811 508.811" height="512" viewBox="0 0 508.811 508.811" width="512" xmlns="http://www.w3.org/2000/svg"><g><g><circle cx="254.395" cy="247.918" fill="#ff6473" r="247.918"/></g><path d="m261.422 495.731c48.648-1.353 96.685-16.92 137.885-46.652 51.723-37.326 87.552-93.342 99.026-156.705.076-.416.149-.833.222-1.25 13.84-78.725-10.785-158.764-66.35-215.946-.001-.001-.002-.001-.002-.002 20.841 36.934-14.611 77.183-52.508 64.557l-77.876-25.946c-17.078-5.69-35.54-5.69-52.618 0l-175.556 58.489c-8.967 2.988-8.956 15.675.016 18.647l26.594 8.809 27.981 9.269v143.903l74.312 10.763c51.515 7.461 45.202 73.497-6.634 68.757-.57-.052-1.139-.105-1.709-.159-32.776-3.095-41.856 43.273-10.931 53.198 25.068 7.495 50.841 10.885 76.809 10.3.446-.009.893-.02 1.339-.032z" fill="#f5415f"/><g><path d="m150.409 218.432 7.929 207.261c25.552 6.29 58.444 10.075 94.334 10.075 81.337 0 147.273-19.439 147.273-43.417v-173.919z" fill="#265cde"/></g><path d="m105.4 218.432v173.918c0 13.397 20.588 25.375 52.939 33.34v-102.014c0-18.865 18.463-32.199 36.371-26.266l40.146 13.299c12.65 4.191 26.319 4.161 38.951-.085l60.078-20.193c19.763-6.643 40.215 8.06 40.215 28.909v97.58c16.298-6.987 25.844-15.449 25.844-24.569v-124.125-49.794z" fill="#0037bd"/><g><path d="m234.856 291.33-157.437-52.152 146.157-62.889 83.607-13.661 147.557 49.161c8.946 2.981 8.963 15.629.025 18.634l-180.957 60.822c-12.632 4.246-26.301 4.276-38.952.085z" fill="#05cdff"/></g><path d="m272.6 281.222-107.005-35.446c-16.329-5.409-16.482-28.453-.226-34.078l141.813-49.069-28.201-9.396c-17.078-5.69-35.54-5.69-52.618 0l-175.554 58.488c-8.967 2.988-8.956 15.675.016 18.647l26.594 8.809 157.438 52.152c12.65 4.19 26.319 4.161 38.951-.085l20.694-6.956c-7.38.308-14.801-.714-21.902-3.066z" fill="#05acff"/><g><path d="m363.494 508.811c-7.166 0-12.975-5.809-12.975-12.975v-225.622l-102.249-36.882c-6.741-2.431-10.235-9.867-7.803-16.608 2.431-6.742 9.867-10.235 16.608-7.803l110.821 39.973c5.145 1.855 8.573 6.737 8.573 12.205v234.736c.001 7.166-5.809 12.976-12.975 12.976z" fill="#ffdc64"/></g><g><path d="m336.773 246.781c0-5.469-3.429-10.35-8.573-12.206l-71.124-25.654c-6.742-2.432-14.177 1.061-16.608 7.803-2.432 6.741 1.062 14.177 7.803 16.608l71.125 25.655c8.456 3.05 17.377-3.215 17.377-12.206z" fill="#fff5aa"/></g></g></svg>